<mxfile host="app.diagrams.net" modified="2022-05-04T15:22:19.954Z" agent="5.0 (Macintosh; Intel Mac OS X 10_15_7) AppleWebKit/537.36 (KHTML, like Gecko) Chrome/100.0.4896.127 Safari/537.36" etag="UpW-cf-H51pYeWCWbqEn" version="17.5.0" type="github">
  <diagram name="Page-1" id="0783ab3e-0a74-02c8-0abd-f7b4e66b4bec">
    <mxGraphModel dx="2344" dy="2130" grid="1" gridSize="10" guides="1" tooltips="1" connect="1" arrows="1" fold="1" page="1" pageScale="1" pageWidth="850" pageHeight="1100" background="none" math="0" shadow="0">
      <root>
        <mxCell id="0" />
        <mxCell id="1" parent="0" />
        <mxCell id="1c1d494c118603dd-1" value="A 功能开发" style="swimlane;html=1;childLayout=stackLayout;startSize=20;rounded=0;shadow=0;comic=0;labelBackgroundColor=none;strokeWidth=1;fontFamily=Verdana;fontSize=12;align=center;" parent="1" vertex="1">
          <mxGeometry x="10" y="40" width="750" height="1250" as="geometry" />
        </mxCell>
        <mxCell id="1c1d494c118603dd-2" value="策划" style="swimlane;html=1;startSize=20;" parent="1c1d494c118603dd-1" vertex="1">
          <mxGeometry y="20" width="250" height="1230" as="geometry" />
        </mxCell>
        <mxCell id="60571a20871a0731-4" value="" style="ellipse;whiteSpace=wrap;html=1;rounded=0;shadow=0;comic=0;labelBackgroundColor=none;strokeWidth=1;fillColor=#000000;fontFamily=Verdana;fontSize=12;align=center;" parent="1c1d494c118603dd-2" vertex="1">
          <mxGeometry x="105" y="50" width="40" height="40" as="geometry" />
        </mxCell>
        <mxCell id="bZDkQXnjWY_TeFYo7BLp-2" style="edgeStyle=orthogonalEdgeStyle;rounded=0;orthogonalLoop=1;jettySize=auto;html=1;exitX=0.5;exitY=1;exitDx=0;exitDy=0;entryX=0.5;entryY=0;entryDx=0;entryDy=0;entryPerimeter=0;" edge="1" parent="1c1d494c118603dd-2" source="60571a20871a0731-8" target="bZDkQXnjWY_TeFYo7BLp-1">
          <mxGeometry relative="1" as="geometry" />
        </mxCell>
        <mxCell id="60571a20871a0731-8" value="策划设计" style="rounded=1;whiteSpace=wrap;html=1;shadow=0;comic=0;labelBackgroundColor=none;strokeWidth=1;fontFamily=Verdana;fontSize=12;align=center;arcSize=50;" parent="1c1d494c118603dd-2" vertex="1">
          <mxGeometry x="75" y="120" width="100" height="30" as="geometry" />
        </mxCell>
        <mxCell id="1c1d494c118603dd-27" style="edgeStyle=orthogonalEdgeStyle;rounded=0;html=1;labelBackgroundColor=none;startArrow=none;startFill=0;startSize=5;endArrow=classicThin;endFill=1;endSize=5;jettySize=auto;orthogonalLoop=1;strokeWidth=1;fontFamily=Verdana;fontSize=12" parent="1c1d494c118603dd-2" source="60571a20871a0731-4" target="60571a20871a0731-8" edge="1">
          <mxGeometry relative="1" as="geometry" />
        </mxCell>
        <mxCell id="bZDkQXnjWY_TeFYo7BLp-1" value="产品设计文档" style="shape=note;whiteSpace=wrap;html=1;rounded=0;shadow=0;comic=0;labelBackgroundColor=none;strokeWidth=1;fontFamily=Verdana;fontSize=12;align=center;size=20;" vertex="1" parent="1c1d494c118603dd-2">
          <mxGeometry x="72.5" y="190" width="105" height="55" as="geometry" />
        </mxCell>
        <mxCell id="bZDkQXnjWY_TeFYo7BLp-34" style="edgeStyle=orthogonalEdgeStyle;rounded=0;orthogonalLoop=1;jettySize=auto;html=1;exitX=0.5;exitY=1;exitDx=0;exitDy=0;entryX=0.5;entryY=0;entryDx=0;entryDy=0;entryPerimeter=0;" edge="1" parent="1c1d494c118603dd-2" source="bZDkQXnjWY_TeFYo7BLp-30" target="bZDkQXnjWY_TeFYo7BLp-33">
          <mxGeometry relative="1" as="geometry" />
        </mxCell>
        <mxCell id="bZDkQXnjWY_TeFYo7BLp-30" value="" style="whiteSpace=wrap;html=1;rounded=0;shadow=0;comic=0;labelBackgroundColor=none;strokeWidth=1;fillColor=#000000;fontFamily=Verdana;fontSize=12;align=center;rotation=0;" vertex="1" parent="1c1d494c118603dd-2">
          <mxGeometry x="56.5" y="420" width="147" height="10" as="geometry" />
        </mxCell>
        <mxCell id="bZDkQXnjWY_TeFYo7BLp-37" style="edgeStyle=orthogonalEdgeStyle;rounded=0;orthogonalLoop=1;jettySize=auto;html=1;exitX=0.5;exitY=1;exitDx=0;exitDy=0;exitPerimeter=0;entryX=0.5;entryY=0;entryDx=0;entryDy=0;" edge="1" parent="1c1d494c118603dd-2" source="bZDkQXnjWY_TeFYo7BLp-33" target="bZDkQXnjWY_TeFYo7BLp-22">
          <mxGeometry relative="1" as="geometry" />
        </mxCell>
        <mxCell id="bZDkQXnjWY_TeFYo7BLp-33" value="Description Template" style="shape=note;whiteSpace=wrap;html=1;rounded=0;shadow=0;comic=0;labelBackgroundColor=none;strokeWidth=1;fontFamily=Verdana;fontSize=12;align=center;size=20;" vertex="1" parent="1c1d494c118603dd-2">
          <mxGeometry x="85" y="483" width="90" height="55" as="geometry" />
        </mxCell>
        <mxCell id="bZDkQXnjWY_TeFYo7BLp-22" value="" style="rounded=0;whiteSpace=wrap;html=1;shadow=0;comic=0;labelBackgroundColor=none;strokeWidth=1;fontFamily=Verdana;fontSize=12;align=center;arcSize=50;" vertex="1" parent="1c1d494c118603dd-2">
          <mxGeometry x="95" y="590" width="70" height="30" as="geometry" />
        </mxCell>
        <mxCell id="bZDkQXnjWY_TeFYo7BLp-21" value="" style="rounded=0;whiteSpace=wrap;html=1;shadow=0;comic=0;labelBackgroundColor=none;strokeWidth=1;fontFamily=Verdana;fontSize=12;align=center;arcSize=50;" vertex="1" parent="1c1d494c118603dd-2">
          <mxGeometry x="90" y="595" width="70" height="30" as="geometry" />
        </mxCell>
        <mxCell id="bZDkQXnjWY_TeFYo7BLp-52" style="edgeStyle=orthogonalEdgeStyle;rounded=0;orthogonalLoop=1;jettySize=auto;html=1;exitX=0.5;exitY=1;exitDx=0;exitDy=0;entryX=0;entryY=0;entryDx=32.5;entryDy=0;entryPerimeter=0;" edge="1" parent="1c1d494c118603dd-2" source="bZDkQXnjWY_TeFYo7BLp-20" target="1c1d494c118603dd-21">
          <mxGeometry relative="1" as="geometry" />
        </mxCell>
        <mxCell id="bZDkQXnjWY_TeFYo7BLp-20" value="Gameplay Editor" style="rounded=0;whiteSpace=wrap;html=1;shadow=0;comic=0;labelBackgroundColor=none;strokeWidth=1;fontFamily=Verdana;fontSize=12;align=center;arcSize=50;" vertex="1" parent="1c1d494c118603dd-2">
          <mxGeometry x="85" y="600" width="70" height="30" as="geometry" />
        </mxCell>
        <mxCell id="1c1d494c118603dd-21" value="gameplay.txt" style="shape=note;whiteSpace=wrap;html=1;rounded=0;shadow=0;comic=0;labelBackgroundColor=none;strokeWidth=1;fontFamily=Verdana;fontSize=12;align=center;size=20;" parent="1c1d494c118603dd-2" vertex="1">
          <mxGeometry x="87.5" y="676" width="85" height="42" as="geometry" />
        </mxCell>
        <mxCell id="1c1d494c118603dd-3" value="程序" style="swimlane;html=1;startSize=20;" parent="1c1d494c118603dd-1" vertex="1">
          <mxGeometry x="250" y="20" width="250" height="1230" as="geometry" />
        </mxCell>
        <mxCell id="bZDkQXnjWY_TeFYo7BLp-8" style="edgeStyle=orthogonalEdgeStyle;rounded=0;orthogonalLoop=1;jettySize=auto;html=1;exitX=0.5;exitY=1;exitDx=0;exitDy=0;exitPerimeter=0;entryX=0.75;entryY=0;entryDx=0;entryDy=0;" edge="1" parent="1c1d494c118603dd-3" source="1c1d494c118603dd-23" target="bZDkQXnjWY_TeFYo7BLp-60">
          <mxGeometry relative="1" as="geometry" />
        </mxCell>
        <mxCell id="1c1d494c118603dd-23" value="Component Template" style="shape=note;whiteSpace=wrap;html=1;rounded=0;shadow=0;comic=0;labelBackgroundColor=none;strokeWidth=1;fontFamily=Verdana;fontSize=12;align=center;size=20;" parent="1c1d494c118603dd-3" vertex="1">
          <mxGeometry x="68.5" y="350" width="90" height="55" as="geometry" />
        </mxCell>
        <mxCell id="bZDkQXnjWY_TeFYo7BLp-6" style="edgeStyle=orthogonalEdgeStyle;rounded=0;orthogonalLoop=1;jettySize=auto;html=1;exitX=0.5;exitY=1;exitDx=0;exitDy=0;" edge="1" parent="1c1d494c118603dd-3" source="bZDkQXnjWY_TeFYo7BLp-3" target="1c1d494c118603dd-23">
          <mxGeometry relative="1" as="geometry" />
        </mxCell>
        <mxCell id="bZDkQXnjWY_TeFYo7BLp-3" value="程序设计" style="rounded=1;whiteSpace=wrap;html=1;shadow=0;comic=0;labelBackgroundColor=none;strokeWidth=1;fontFamily=Verdana;fontSize=12;align=center;arcSize=50;" vertex="1" parent="1c1d494c118603dd-3">
          <mxGeometry x="63.5" y="290" width="100" height="30" as="geometry" />
        </mxCell>
        <mxCell id="bZDkQXnjWY_TeFYo7BLp-10" style="edgeStyle=orthogonalEdgeStyle;rounded=0;orthogonalLoop=1;jettySize=auto;html=1;exitX=0.75;exitY=1;exitDx=0;exitDy=0;" edge="1" parent="1c1d494c118603dd-3" source="bZDkQXnjWY_TeFYo7BLp-60" target="bZDkQXnjWY_TeFYo7BLp-78">
          <mxGeometry relative="1" as="geometry">
            <mxPoint x="113.25" y="562" as="sourcePoint" />
          </mxGeometry>
        </mxCell>
        <mxCell id="bZDkQXnjWY_TeFYo7BLp-12" style="edgeStyle=orthogonalEdgeStyle;rounded=0;orthogonalLoop=1;jettySize=auto;html=1;exitX=0.5;exitY=1;exitDx=0;exitDy=0;entryX=0.5;entryY=0;entryDx=0;entryDy=0;" edge="1" parent="1c1d494c118603dd-3" source="bZDkQXnjWY_TeFYo7BLp-9" target="bZDkQXnjWY_TeFYo7BLp-11">
          <mxGeometry relative="1" as="geometry" />
        </mxCell>
        <mxCell id="bZDkQXnjWY_TeFYo7BLp-9" value="c++/c# IDE" style="rounded=0;whiteSpace=wrap;html=1;shadow=0;comic=0;labelBackgroundColor=none;strokeWidth=1;fontFamily=Verdana;fontSize=12;align=center;arcSize=50;" vertex="1" parent="1c1d494c118603dd-3">
          <mxGeometry x="79" y="630" width="70" height="30" as="geometry" />
        </mxCell>
        <mxCell id="bZDkQXnjWY_TeFYo7BLp-17" style="edgeStyle=orthogonalEdgeStyle;rounded=0;orthogonalLoop=1;jettySize=auto;html=1;exitX=0.5;exitY=1;exitDx=0;exitDy=0;entryX=0.5;entryY=0;entryDx=0;entryDy=0;entryPerimeter=0;" edge="1" parent="1c1d494c118603dd-3" source="bZDkQXnjWY_TeFYo7BLp-11" target="bZDkQXnjWY_TeFYo7BLp-83">
          <mxGeometry relative="1" as="geometry">
            <mxPoint x="114" y="752" as="targetPoint" />
          </mxGeometry>
        </mxCell>
        <mxCell id="bZDkQXnjWY_TeFYo7BLp-11" value="逻辑开发" style="rounded=1;whiteSpace=wrap;html=1;shadow=0;comic=0;labelBackgroundColor=none;strokeWidth=1;fontFamily=Verdana;fontSize=12;align=center;arcSize=50;" vertex="1" parent="1c1d494c118603dd-3">
          <mxGeometry x="64" y="692" width="100" height="30" as="geometry" />
        </mxCell>
        <mxCell id="bZDkQXnjWY_TeFYo7BLp-114" style="edgeStyle=orthogonalEdgeStyle;rounded=0;orthogonalLoop=1;jettySize=auto;html=1;exitX=0;exitY=0;exitDx=91;exitDy=40;exitPerimeter=0;entryX=0.5;entryY=1;entryDx=0;entryDy=0;" edge="1" parent="1c1d494c118603dd-3" source="bZDkQXnjWY_TeFYo7BLp-18" target="bZDkQXnjWY_TeFYo7BLp-113">
          <mxGeometry relative="1" as="geometry" />
        </mxCell>
        <mxCell id="bZDkQXnjWY_TeFYo7BLp-18" value="App" style="shape=cube;whiteSpace=wrap;html=1;boundedLbl=1;backgroundOutline=1;darkOpacity=0.05;darkOpacity2=0.1;" vertex="1" parent="1c1d494c118603dd-3">
          <mxGeometry x="67.5" y="920" width="91" height="60" as="geometry" />
        </mxCell>
        <mxCell id="bZDkQXnjWY_TeFYo7BLp-36" style="edgeStyle=orthogonalEdgeStyle;rounded=0;orthogonalLoop=1;jettySize=auto;html=1;exitX=0.5;exitY=1;exitDx=0;exitDy=0;entryX=0.5;entryY=0;entryDx=0;entryDy=0;" edge="1" parent="1c1d494c118603dd-3" source="bZDkQXnjWY_TeFYo7BLp-35" target="bZDkQXnjWY_TeFYo7BLp-3">
          <mxGeometry relative="1" as="geometry" />
        </mxCell>
        <mxCell id="bZDkQXnjWY_TeFYo7BLp-35" value="" style="whiteSpace=wrap;html=1;rounded=0;shadow=0;comic=0;labelBackgroundColor=none;strokeWidth=1;fillColor=#000000;fontFamily=Verdana;fontSize=12;align=center;rotation=0;" vertex="1" parent="1c1d494c118603dd-3">
          <mxGeometry x="40" y="250" width="147" height="10" as="geometry" />
        </mxCell>
        <mxCell id="bZDkQXnjWY_TeFYo7BLp-60" value="Auto Generate" style="rounded=1;whiteSpace=wrap;html=1;shadow=0;comic=0;labelBackgroundColor=none;strokeWidth=1;fontFamily=Verdana;fontSize=12;align=center;arcSize=50;" vertex="1" parent="1c1d494c118603dd-3">
          <mxGeometry x="39" y="510" width="100" height="30" as="geometry" />
        </mxCell>
        <mxCell id="bZDkQXnjWY_TeFYo7BLp-79" style="edgeStyle=orthogonalEdgeStyle;rounded=0;orthogonalLoop=1;jettySize=auto;html=1;exitX=0.5;exitY=1;exitDx=0;exitDy=0;exitPerimeter=0;" edge="1" parent="1c1d494c118603dd-3" source="bZDkQXnjWY_TeFYo7BLp-78" target="bZDkQXnjWY_TeFYo7BLp-9">
          <mxGeometry relative="1" as="geometry" />
        </mxCell>
        <mxCell id="bZDkQXnjWY_TeFYo7BLp-78" value=".cpp/.cs" style="shape=note;whiteSpace=wrap;html=1;rounded=0;shadow=0;comic=0;labelBackgroundColor=none;strokeWidth=1;fontFamily=Verdana;fontSize=12;align=center;size=20;" vertex="1" parent="1c1d494c118603dd-3">
          <mxGeometry x="71.5" y="570" width="85" height="42" as="geometry" />
        </mxCell>
        <mxCell id="bZDkQXnjWY_TeFYo7BLp-84" style="edgeStyle=orthogonalEdgeStyle;rounded=0;orthogonalLoop=1;jettySize=auto;html=1;exitX=0.5;exitY=1;exitDx=0;exitDy=0;exitPerimeter=0;entryX=0.533;entryY=0;entryDx=0;entryDy=0;entryPerimeter=0;startArrow=none;" edge="1" parent="1c1d494c118603dd-3" source="bZDkQXnjWY_TeFYo7BLp-85" target="bZDkQXnjWY_TeFYo7BLp-18">
          <mxGeometry relative="1" as="geometry" />
        </mxCell>
        <mxCell id="bZDkQXnjWY_TeFYo7BLp-87" style="edgeStyle=orthogonalEdgeStyle;rounded=0;orthogonalLoop=1;jettySize=auto;html=1;exitX=0.5;exitY=1;exitDx=0;exitDy=0;exitPerimeter=0;entryX=0.5;entryY=0;entryDx=0;entryDy=0;" edge="1" parent="1c1d494c118603dd-3" source="bZDkQXnjWY_TeFYo7BLp-83" target="bZDkQXnjWY_TeFYo7BLp-85">
          <mxGeometry relative="1" as="geometry" />
        </mxCell>
        <mxCell id="bZDkQXnjWY_TeFYo7BLp-83" value=".cpp/.cs" style="shape=note;whiteSpace=wrap;html=1;rounded=0;shadow=0;comic=0;labelBackgroundColor=none;strokeWidth=1;fontFamily=Verdana;fontSize=12;align=center;size=20;" vertex="1" parent="1c1d494c118603dd-3">
          <mxGeometry x="73" y="760" width="85" height="42" as="geometry" />
        </mxCell>
        <mxCell id="bZDkQXnjWY_TeFYo7BLp-85" value="构建" style="rounded=1;whiteSpace=wrap;html=1;shadow=0;comic=0;labelBackgroundColor=none;strokeWidth=1;fontFamily=Verdana;fontSize=12;align=center;arcSize=50;" vertex="1" parent="1c1d494c118603dd-3">
          <mxGeometry x="10" y="850" width="100" height="30" as="geometry" />
        </mxCell>
        <mxCell id="bZDkQXnjWY_TeFYo7BLp-90" style="edgeStyle=orthogonalEdgeStyle;rounded=0;orthogonalLoop=1;jettySize=auto;html=1;exitX=0.4;exitY=0.1;exitDx=0;exitDy=0;exitPerimeter=0;entryX=0;entryY=0;entryDx=55.5;entryDy=60;entryPerimeter=0;" edge="1" parent="1c1d494c118603dd-3" source="bZDkQXnjWY_TeFYo7BLp-55" target="bZDkQXnjWY_TeFYo7BLp-18">
          <mxGeometry relative="1" as="geometry" />
        </mxCell>
        <mxCell id="bZDkQXnjWY_TeFYo7BLp-55" value="DB&lt;br&gt;（只针对 A 功能开发，有且只有一个，可以在任何位置）" style="ellipse;shape=cloud;whiteSpace=wrap;html=1;" vertex="1" parent="1c1d494c118603dd-3">
          <mxGeometry x="-67.75" y="1040" width="366.5" height="170" as="geometry" />
        </mxCell>
        <mxCell id="bZDkQXnjWY_TeFYo7BLp-115" style="edgeStyle=orthogonalEdgeStyle;rounded=0;orthogonalLoop=1;jettySize=auto;html=1;exitX=0.5;exitY=0;exitDx=0;exitDy=0;entryX=1;entryY=0.5;entryDx=0;entryDy=0;" edge="1" parent="1c1d494c118603dd-3" source="bZDkQXnjWY_TeFYo7BLp-113" target="bZDkQXnjWY_TeFYo7BLp-11">
          <mxGeometry relative="1" as="geometry" />
        </mxCell>
        <mxCell id="bZDkQXnjWY_TeFYo7BLp-113" value="测试" style="rounded=1;whiteSpace=wrap;html=1;shadow=0;comic=0;labelBackgroundColor=none;strokeWidth=1;fontFamily=Verdana;fontSize=12;align=center;arcSize=50;" vertex="1" parent="1c1d494c118603dd-3">
          <mxGeometry x="139" y="850" width="100" height="30" as="geometry" />
        </mxCell>
        <mxCell id="bZDkQXnjWY_TeFYo7BLp-5" style="edgeStyle=orthogonalEdgeStyle;rounded=0;orthogonalLoop=1;jettySize=auto;html=1;exitX=0;exitY=0;exitDx=105;exitDy=37.5;exitPerimeter=0;entryX=0.25;entryY=0;entryDx=0;entryDy=0;" edge="1" parent="1c1d494c118603dd-1" source="bZDkQXnjWY_TeFYo7BLp-1" target="bZDkQXnjWY_TeFYo7BLp-35">
          <mxGeometry relative="1" as="geometry" />
        </mxCell>
        <mxCell id="bZDkQXnjWY_TeFYo7BLp-31" style="edgeStyle=orthogonalEdgeStyle;rounded=0;orthogonalLoop=1;jettySize=auto;html=1;exitX=0;exitY=0.5;exitDx=0;exitDy=0;exitPerimeter=0;entryX=0.75;entryY=0;entryDx=0;entryDy=0;" edge="1" parent="1c1d494c118603dd-1" source="1c1d494c118603dd-23" target="bZDkQXnjWY_TeFYo7BLp-30">
          <mxGeometry relative="1" as="geometry" />
        </mxCell>
        <mxCell id="bZDkQXnjWY_TeFYo7BLp-58" style="edgeStyle=orthogonalEdgeStyle;rounded=0;orthogonalLoop=1;jettySize=auto;html=1;exitX=0;exitY=0;exitDx=85;exitDy=31;exitPerimeter=0;entryX=0;entryY=0.5;entryDx=0;entryDy=0;" edge="1" parent="1c1d494c118603dd-1" source="1c1d494c118603dd-21" target="bZDkQXnjWY_TeFYo7BLp-11">
          <mxGeometry relative="1" as="geometry" />
        </mxCell>
        <mxCell id="bZDkQXnjWY_TeFYo7BLp-59" style="edgeStyle=orthogonalEdgeStyle;rounded=0;orthogonalLoop=1;jettySize=auto;html=1;exitX=0;exitY=0;exitDx=90;exitDy=37.5;exitPerimeter=0;entryX=0.25;entryY=0;entryDx=0;entryDy=0;" edge="1" parent="1c1d494c118603dd-1" source="bZDkQXnjWY_TeFYo7BLp-33" target="bZDkQXnjWY_TeFYo7BLp-60">
          <mxGeometry relative="1" as="geometry" />
        </mxCell>
        <mxCell id="bZDkQXnjWY_TeFYo7BLp-57" style="edgeStyle=orthogonalEdgeStyle;rounded=0;orthogonalLoop=1;jettySize=auto;html=1;exitX=0.5;exitY=1;exitDx=0;exitDy=0;exitPerimeter=0;entryX=0.07;entryY=0.4;entryDx=0;entryDy=0;entryPerimeter=0;" edge="1" parent="1c1d494c118603dd-1" source="1c1d494c118603dd-21" target="bZDkQXnjWY_TeFYo7BLp-55">
          <mxGeometry relative="1" as="geometry" />
        </mxCell>
        <mxCell id="bZDkQXnjWY_TeFYo7BLp-117" style="edgeStyle=orthogonalEdgeStyle;rounded=0;orthogonalLoop=1;jettySize=auto;html=1;exitX=0;exitY=0;exitDx=91;exitDy=40;exitPerimeter=0;entryX=0;entryY=0.5;entryDx=0;entryDy=0;" edge="1" parent="1c1d494c118603dd-1" source="bZDkQXnjWY_TeFYo7BLp-18" target="bZDkQXnjWY_TeFYo7BLp-116">
          <mxGeometry relative="1" as="geometry" />
        </mxCell>
        <mxCell id="bZDkQXnjWY_TeFYo7BLp-124" style="edgeStyle=orthogonalEdgeStyle;rounded=0;orthogonalLoop=1;jettySize=auto;html=1;exitX=0;exitY=0.5;exitDx=0;exitDy=0;exitPerimeter=0;entryX=1;entryY=0.5;entryDx=0;entryDy=0;" edge="1" parent="1c1d494c118603dd-1" source="bZDkQXnjWY_TeFYo7BLp-121" target="bZDkQXnjWY_TeFYo7BLp-11">
          <mxGeometry relative="1" as="geometry" />
        </mxCell>
        <mxCell id="1c1d494c118603dd-4" value="测试" style="swimlane;html=1;startSize=20;" parent="1c1d494c118603dd-1" vertex="1">
          <mxGeometry x="500" y="20" width="250" height="1230" as="geometry" />
        </mxCell>
        <mxCell id="60571a20871a0731-5" value="" style="shape=mxgraph.bpmn.shape;html=1;verticalLabelPosition=bottom;labelBackgroundColor=#ffffff;verticalAlign=top;perimeter=ellipsePerimeter;outline=end;symbol=terminate;rounded=0;shadow=0;comic=0;strokeWidth=1;fontFamily=Verdana;fontSize=12;align=center;" parent="1c1d494c118603dd-4" vertex="1">
          <mxGeometry x="105" y="1030" width="40" height="40" as="geometry" />
        </mxCell>
        <mxCell id="bZDkQXnjWY_TeFYo7BLp-118" style="edgeStyle=orthogonalEdgeStyle;rounded=0;orthogonalLoop=1;jettySize=auto;html=1;exitX=0.5;exitY=1;exitDx=0;exitDy=0;entryX=0.5;entryY=0;entryDx=0;entryDy=0;" edge="1" parent="1c1d494c118603dd-4" source="bZDkQXnjWY_TeFYo7BLp-89" target="bZDkQXnjWY_TeFYo7BLp-116">
          <mxGeometry relative="1" as="geometry" />
        </mxCell>
        <mxCell id="bZDkQXnjWY_TeFYo7BLp-89" value="测试用例设计" style="rounded=1;whiteSpace=wrap;html=1;shadow=0;comic=0;labelBackgroundColor=none;strokeWidth=1;fontFamily=Verdana;fontSize=12;align=center;arcSize=50;" vertex="1" parent="1c1d494c118603dd-4">
          <mxGeometry x="75" y="880" width="100" height="30" as="geometry" />
        </mxCell>
        <mxCell id="bZDkQXnjWY_TeFYo7BLp-119" style="edgeStyle=orthogonalEdgeStyle;rounded=0;orthogonalLoop=1;jettySize=auto;html=1;exitX=0.5;exitY=1;exitDx=0;exitDy=0;entryX=0.5;entryY=0;entryDx=0;entryDy=0;" edge="1" parent="1c1d494c118603dd-4" source="bZDkQXnjWY_TeFYo7BLp-116" target="60571a20871a0731-5">
          <mxGeometry relative="1" as="geometry" />
        </mxCell>
        <mxCell id="bZDkQXnjWY_TeFYo7BLp-123" style="edgeStyle=orthogonalEdgeStyle;rounded=0;orthogonalLoop=1;jettySize=auto;html=1;exitX=1;exitY=0.5;exitDx=0;exitDy=0;entryX=0;entryY=0;entryDx=85;entryDy=31;entryPerimeter=0;" edge="1" parent="1c1d494c118603dd-4" source="bZDkQXnjWY_TeFYo7BLp-116" target="bZDkQXnjWY_TeFYo7BLp-121">
          <mxGeometry relative="1" as="geometry">
            <Array as="points">
              <mxPoint x="220" y="960" />
              <mxPoint x="220" y="717" />
            </Array>
          </mxGeometry>
        </mxCell>
        <mxCell id="bZDkQXnjWY_TeFYo7BLp-116" value="自动化测试" style="rounded=0;whiteSpace=wrap;html=1;shadow=0;comic=0;labelBackgroundColor=none;strokeWidth=1;fontFamily=Verdana;fontSize=12;align=center;arcSize=50;" vertex="1" parent="1c1d494c118603dd-4">
          <mxGeometry x="90" y="945" width="70" height="30" as="geometry" />
        </mxCell>
        <mxCell id="bZDkQXnjWY_TeFYo7BLp-121" value="测试报告" style="shape=note;whiteSpace=wrap;html=1;rounded=0;shadow=0;comic=0;labelBackgroundColor=none;strokeWidth=1;fontFamily=Verdana;fontSize=12;align=center;size=20;" vertex="1" parent="1c1d494c118603dd-4">
          <mxGeometry x="82.5" y="686" width="85" height="42" as="geometry" />
        </mxCell>
        <mxCell id="bZDkQXnjWY_TeFYo7BLp-125" style="edgeStyle=orthogonalEdgeStyle;rounded=0;orthogonalLoop=1;jettySize=auto;html=1;exitX=0.88;exitY=0.25;exitDx=0;exitDy=0;exitPerimeter=0;entryX=0;entryY=0.5;entryDx=0;entryDy=0;" edge="1" parent="1c1d494c118603dd-1" source="bZDkQXnjWY_TeFYo7BLp-55" target="bZDkQXnjWY_TeFYo7BLp-116">
          <mxGeometry relative="1" as="geometry" />
        </mxCell>
        <mxCell id="1c1d494c118603dd-51" style="edgeStyle=none;rounded=0;html=1;dashed=1;labelBackgroundColor=none;startArrow=none;startFill=0;startSize=5;endArrow=oval;endFill=0;endSize=5;jettySize=auto;orthogonalLoop=1;strokeWidth=1;fontFamily=Verdana;fontSize=12" parent="1" edge="1">
          <mxGeometry relative="1" as="geometry">
            <mxPoint x="-323.78" y="1131.1523076923077" as="sourcePoint" />
            <mxPoint x="-398.78" y="1099.9984615384615" as="targetPoint" />
          </mxGeometry>
        </mxCell>
        <mxCell id="1c1d494c118603dd-36" style="edgeStyle=none;rounded=0;html=1;labelBackgroundColor=none;startArrow=none;startFill=0;startSize=5;endArrow=classicThin;endFill=1;endSize=5;jettySize=auto;orthogonalLoop=1;strokeWidth=1;fontFamily=Verdana;fontSize=12" parent="1" source="1c1d494c118603dd-7" edge="1">
          <mxGeometry relative="1" as="geometry">
            <mxPoint x="-368.78" y="1510.8695652173913" as="targetPoint" />
          </mxGeometry>
        </mxCell>
        <mxCell id="1c1d494c118603dd-6" value="Action" style="rounded=1;whiteSpace=wrap;html=1;shadow=0;comic=0;labelBackgroundColor=none;strokeWidth=1;fontFamily=Verdana;fontSize=12;align=center;arcSize=50;" parent="1" vertex="1">
          <mxGeometry x="-488.78" y="1320" width="100" height="30" as="geometry" />
        </mxCell>
        <mxCell id="1c1d494c118603dd-7" value="Action" style="rounded=1;whiteSpace=wrap;html=1;shadow=0;comic=0;labelBackgroundColor=none;strokeWidth=1;fontFamily=Verdana;fontSize=12;align=center;arcSize=50;" parent="1" vertex="1">
          <mxGeometry x="-498.78" y="1475" width="100" height="30" as="geometry" />
        </mxCell>
        <mxCell id="1c1d494c118603dd-35" style="edgeStyle=none;rounded=0;html=1;labelBackgroundColor=none;startArrow=none;startFill=0;startSize=5;endArrow=classicThin;endFill=1;endSize=5;jettySize=auto;orthogonalLoop=1;strokeWidth=1;fontFamily=Verdana;fontSize=12" parent="1" source="1c1d494c118603dd-10" target="1c1d494c118603dd-7" edge="1">
          <mxGeometry relative="1" as="geometry" />
        </mxCell>
        <mxCell id="1c1d494c118603dd-10" value="Object" style="rounded=0;whiteSpace=wrap;html=1;shadow=0;comic=0;labelBackgroundColor=none;strokeWidth=1;fontFamily=Verdana;fontSize=12;align=center;arcSize=50;" parent="1" vertex="1">
          <mxGeometry x="-438.78" y="1420" width="70" height="30" as="geometry" />
        </mxCell>
        <mxCell id="1c1d494c118603dd-46" style="edgeStyle=none;rounded=0;html=1;labelBackgroundColor=none;startArrow=none;startFill=0;startSize=5;endArrow=oval;endFill=0;endSize=5;jettySize=auto;orthogonalLoop=1;strokeWidth=1;fontFamily=Verdana;fontSize=12;dashed=1;" parent="1" target="1c1d494c118603dd-6" edge="1">
          <mxGeometry relative="1" as="geometry">
            <mxPoint x="-500.0049999999999" y="1414" as="sourcePoint" />
          </mxGeometry>
        </mxCell>
        <mxCell id="1c1d494c118603dd-47" style="edgeStyle=none;rounded=0;html=1;dashed=1;labelBackgroundColor=none;startArrow=none;startFill=0;startSize=5;endArrow=oval;endFill=0;endSize=5;jettySize=auto;orthogonalLoop=1;strokeWidth=1;fontFamily=Verdana;fontSize=12" parent="1" target="1c1d494c118603dd-10" edge="1">
          <mxGeometry relative="1" as="geometry">
            <mxPoint x="-473.78" y="1435" as="sourcePoint" />
          </mxGeometry>
        </mxCell>
        <mxCell id="bZDkQXnjWY_TeFYo7BLp-13" value="行为" style="rounded=1;whiteSpace=wrap;html=1;shadow=0;comic=0;labelBackgroundColor=none;strokeWidth=1;fontFamily=Verdana;fontSize=12;align=center;arcSize=50;" vertex="1" parent="1">
          <mxGeometry x="120" y="-120" width="100" height="30" as="geometry" />
        </mxCell>
        <mxCell id="bZDkQXnjWY_TeFYo7BLp-14" value="输出" style="shape=note;whiteSpace=wrap;html=1;rounded=0;shadow=0;comic=0;labelBackgroundColor=none;strokeWidth=1;fontFamily=Verdana;fontSize=12;align=center;size=20;" vertex="1" parent="1">
          <mxGeometry x="300" y="-132.5" width="105" height="55" as="geometry" />
        </mxCell>
        <mxCell id="bZDkQXnjWY_TeFYo7BLp-15" value="工具" style="rounded=0;whiteSpace=wrap;html=1;shadow=0;comic=0;labelBackgroundColor=none;strokeWidth=1;fontFamily=Verdana;fontSize=12;align=center;arcSize=50;" vertex="1" parent="1">
          <mxGeometry x="-10" y="-120" width="70" height="30" as="geometry" />
        </mxCell>
        <mxCell id="bZDkQXnjWY_TeFYo7BLp-23" value="" style="rounded=0;whiteSpace=wrap;html=1;shadow=0;comic=0;labelBackgroundColor=none;strokeWidth=1;fontFamily=Verdana;fontSize=12;align=center;arcSize=50;" vertex="1" parent="1">
          <mxGeometry x="-140" y="640" width="70" height="30" as="geometry" />
        </mxCell>
        <mxCell id="bZDkQXnjWY_TeFYo7BLp-24" value="" style="rounded=0;whiteSpace=wrap;html=1;shadow=0;comic=0;labelBackgroundColor=none;strokeWidth=1;fontFamily=Verdana;fontSize=12;align=center;arcSize=50;" vertex="1" parent="1">
          <mxGeometry x="-145" y="645" width="70" height="30" as="geometry" />
        </mxCell>
        <mxCell id="bZDkQXnjWY_TeFYo7BLp-25" value="Gameplay Editor" style="rounded=0;whiteSpace=wrap;html=1;shadow=0;comic=0;labelBackgroundColor=none;strokeWidth=1;fontFamily=Verdana;fontSize=12;align=center;arcSize=50;" vertex="1" parent="1">
          <mxGeometry x="-150" y="650" width="70" height="30" as="geometry" />
        </mxCell>
        <mxCell id="bZDkQXnjWY_TeFYo7BLp-29" style="edgeStyle=orthogonalEdgeStyle;rounded=0;orthogonalLoop=1;jettySize=auto;html=1;exitX=1;exitY=0.5;exitDx=0;exitDy=0;entryX=0.75;entryY=0;entryDx=0;entryDy=0;" edge="1" parent="1" source="bZDkQXnjWY_TeFYo7BLp-28" target="bZDkQXnjWY_TeFYo7BLp-35">
          <mxGeometry relative="1" as="geometry" />
        </mxCell>
        <mxCell id="bZDkQXnjWY_TeFYo7BLp-32" style="edgeStyle=orthogonalEdgeStyle;rounded=0;orthogonalLoop=1;jettySize=auto;html=1;exitX=0.5;exitY=1;exitDx=0;exitDy=0;entryX=0.25;entryY=0;entryDx=0;entryDy=0;" edge="1" parent="1" source="bZDkQXnjWY_TeFYo7BLp-28" target="bZDkQXnjWY_TeFYo7BLp-30">
          <mxGeometry relative="1" as="geometry" />
        </mxCell>
        <mxCell id="bZDkQXnjWY_TeFYo7BLp-28" value="Desc Tool" style="rounded=0;whiteSpace=wrap;html=1;shadow=0;comic=0;labelBackgroundColor=none;strokeWidth=1;fontFamily=Verdana;fontSize=12;align=center;arcSize=50;" vertex="1" parent="1">
          <mxGeometry x="-110" y="200" width="70" height="30" as="geometry" />
        </mxCell>
      </root>
    </mxGraphModel>
  </diagram>
</mxfile>
